<svg width="1046" height="413" viewBox="0 0 1046 413" fill="none" xmlns="http://www.w3.org/2000/svg">
<path d="M109.392 13.7828C112.374 12.4352 116.03 16.0524 114.587 18.9604C113.711 21.3246 110.765 21.4783 108.966 22.885C71.2676 50.2741 40.7159 88.1958 24.6117 132.111C23.3338 135.444 22.1742 138.837 21.4406 142.336C36.0065 101.317 63.5646 65.3931 98.3879 39.4225C102.257 36.1954 107.31 34.174 109.759 29.5283C112.267 26.4313 117.509 29.812 116.362 33.4056C115.557 37.0583 110.978 35.8526 108.73 37.9567C70.4985 64.9558 39.2486 103.327 24.9549 148.211C37.5684 115.396 58.7132 85.9143 85.869 63.5491C93.6075 57.0357 101.926 51.2553 110.41 45.7703C111.368 44.4346 111.83 42.3304 113.735 42.0586C116.776 41.0183 119.959 44.4819 118.669 47.4135C117.403 50.5342 113.51 49.4939 111.179 51.1371C72.8295 76.2566 41.5087 113.493 27.4161 157.419C42.1595 118.517 70.3683 85.0751 105.807 63.3245C108.422 61.6577 111.569 60.4756 113.167 57.6268C114.989 53.9268 121.39 56.1492 120.456 60.2392C120.089 64.1638 115.415 63.2181 112.942 64.7785C75.622 87.3329 45.1413 122.205 30.7765 163.614C46.4428 125.987 75.0067 93.7635 111.155 74.6962C113.652 73.6678 115.368 71.5637 117.237 69.7196C120.515 68.0174 124.36 72.1547 122.479 75.2873C121.024 78.3135 117.166 76.6467 114.8 78.2544C86.224 94.1535 61.5886 117.5 45.4134 146.012C40.5976 154.618 36.0657 163.507 33.2495 172.988C48.7502 135.172 78.8168 103.528 116.113 86.6C116.681 85.5952 117.249 84.5786 117.817 83.562C119.805 82.7227 122.491 82.4744 123.804 84.5904C125.804 86.86 123.863 90.8673 120.882 90.7491C116.634 91.1037 113.131 93.6571 109.475 95.5602C79.5149 112.157 54.7966 138.234 40.5147 169.406C38.5742 173.661 36.61 177.941 35.5095 182.515C50.7617 145.362 81.207 114.84 118.515 99.804C119.556 98.5509 120.231 96.6478 122.041 96.3522C125.059 95.5484 128.028 98.9292 126.751 101.814C125.461 104.934 121.592 103.764 119.083 104.97C88.4248 117.973 62.4523 141.615 46.6795 170.919C42.7274 178.425 38.8108 186.121 36.7993 194.395C49.046 163.566 72.1905 137.064 101.654 121.59C108.978 117.559 116.882 114.828 124.573 111.613C128.289 110.017 131.555 115.467 128.549 118.056C126.822 120.219 123.97 119.119 122.018 117.973C88.7443 129.546 60.8313 154.937 45.5791 186.593C29.6524 218.664 27.1794 256.373 35.5569 290.925C44.0645 326.459 63.2333 358.624 86.8156 386.238C89.5844 389.548 92.6017 392.657 95.1812 396.12C94.8263 396.936 94.1163 398.555 93.7613 399.371C90.8624 399.631 89.3241 396.853 87.4427 395.163C56.5242 364.014 31.9716 326.187 18.2576 284.388C4.8395 244.055 2.189 200.069 11.6787 158.59C21.0856 116.684 43.0232 77.9352 73.149 47.4253C83.3368 36.9283 94.5305 27.4833 106.245 18.7476C106.919 16.9272 107.215 14.4448 109.392 13.7828Z" fill="#2AB299"/>
<path d="M414.33 182.752C419.489 182.716 424.659 182.704 429.83 182.752C429.795 213.581 429.795 244.398 429.83 275.227C409.135 256.869 388.783 238.121 367.922 219.964C368.348 238.31 367.993 256.68 368.123 275.026C362.976 275.073 357.841 275.073 352.706 275.038C352.836 244.268 352.706 213.51 352.777 182.74C373.271 201.24 393.847 219.669 414.401 238.121C414.318 219.657 414.448 201.204 414.33 182.752Z" fill="#FEFEFE"/>
<path d="M106.966 217.836C111.794 198.462 130.218 183.272 150.309 182.929C163.041 182.255 175.655 187.527 184.659 196.417C181.015 200.034 177.394 203.663 173.761 207.292C166.425 200.058 155.539 196.641 145.422 198.994C131.886 201.712 121.035 214.503 121.059 228.369C120.456 242.258 130.726 255.663 144.263 258.831C154.675 261.598 166.106 258.347 173.797 250.9C177.382 254.469 180.956 258.063 184.636 261.538C175.252 271.255 161.373 276.35 147.919 275.038C132.04 273.797 117.356 263.56 110.315 249.351C105.393 239.717 104.34 228.274 106.966 217.836Z" fill="#FEFEFE"/>
<path d="M250.224 184.359C262.825 181.262 276.93 182.929 287.733 190.388C297.376 197.091 305.198 207.044 307.647 218.687C310.073 230.402 308.546 243.275 301.861 253.394C297.968 259.198 292.916 264.257 287.094 268.123C276.101 275.369 261.938 276.906 249.36 273.478C239.349 270.688 230.759 264.009 224.606 255.758C215.069 242.944 213.531 224.953 219.92 210.425C225.659 198.001 236.853 187.835 250.224 184.359ZM253.608 199.526C239.432 203.497 229.434 218.546 231.812 233.168C233.421 248.145 247.561 260.427 262.66 259.753C278.373 260.167 292.655 246.419 293.117 230.78C293.909 220.567 288.892 210.377 280.669 204.372C273.131 198.497 262.719 196.866 253.608 199.526Z" fill="#FEFEFE"/>
<path d="M473.682 182.905C479.456 182.905 485.23 182.882 491.017 182.929C500.684 202.174 510.221 221.501 520.101 240.639C529.662 221.359 539.447 202.197 549.032 182.929C554.794 182.882 560.557 182.894 566.319 182.917C554.132 207.032 542.074 231.218 529.969 255.38C526.502 261.834 523.745 268.69 519.817 274.884C504.47 244.209 489.194 213.498 473.682 182.905Z" fill="#FEFEFE"/>
<path d="M610.23 182.905C630.724 182.858 651.23 182.988 671.736 182.834C671.842 187.988 671.747 193.142 671.83 198.308C656.412 198.355 640.983 198.308 625.553 198.332C625.588 206.051 625.553 213.77 625.577 221.489C640.983 221.501 656.401 221.465 671.818 221.513C671.771 226.607 671.783 231.702 671.795 236.797C656.389 236.868 640.983 236.809 625.577 236.833C625.553 244.457 625.588 252.093 625.553 259.718C640.983 259.777 656.412 259.694 671.83 259.765C671.759 264.907 671.771 270.061 671.83 275.215C651.289 275.227 630.759 275.239 610.218 275.215C610.253 244.445 610.242 213.675 610.23 182.905Z" fill="#FEFEFE"/>
<path d="M715.776 182.929C731.549 182.894 747.334 182.87 763.119 182.929C778.039 182.976 791.588 195.755 792.747 210.566C794.297 223.7 786.109 237.128 773.874 242.046C780.134 253.157 786.512 264.186 792.949 275.192C787.044 275.263 781.14 275.192 775.235 275.251C769.153 265.049 763.284 254.73 757.297 244.481C748.565 244.469 739.844 244.445 731.123 244.493C731.147 254.73 731.076 264.966 731.171 275.203C726.059 275.239 720.947 275.227 715.836 275.215C715.694 244.457 715.812 213.699 715.776 182.929ZM731.123 198.344C731.135 208.51 731.123 218.676 731.123 228.853C741.429 228.913 751.736 228.96 762.042 228.972C769.981 229.326 777.389 222.222 777.329 214.29C778.099 205.85 770.336 198.001 761.947 198.332C751.665 198.32 741.394 198.32 731.123 198.344Z" fill="#FEFEFE"/>
<path d="M842.811 206.252C850.396 193.414 864.062 183.839 879.196 183.035C892.685 181.759 906.376 186.936 915.972 196.417C912.209 199.998 908.683 203.817 904.778 207.245C898.992 201.464 890.934 198.024 882.722 198.308C870.499 198.19 858.915 206.335 854.419 217.6C849.39 230.106 853.46 245.639 864.465 253.618C876.747 263.276 895.998 261.255 906.269 249.564C906.198 245.32 906.222 241.076 906.257 236.844C898.542 236.797 890.828 236.856 883.125 236.821C883.113 231.714 883.125 226.607 883.101 221.501C896.022 221.501 908.955 221.442 921.888 221.536C921.876 232.482 921.864 243.417 921.888 254.363C916.185 262.496 908.174 269.163 898.744 272.496C885.325 277.319 869.553 275.771 857.708 267.685C848.585 261.349 841.19 252.117 838.386 241.254C835.427 229.61 836.646 216.69 842.811 206.252Z" fill="#FEFEFE"/>
<path d="M965.704 182.929C986.257 182.87 1006.81 182.917 1027.38 182.905C1027.35 188.036 1027.35 193.166 1027.39 198.296C1011.93 198.367 996.481 198.284 981.039 198.344C981.134 206.063 981.051 213.77 981.098 221.489C996.516 221.501 1011.93 221.489 1027.36 221.489C1027.36 226.607 1027.36 231.714 1027.36 236.833C1011.92 236.833 996.493 236.809 981.063 236.844C981.087 244.469 981.122 252.093 981.039 259.718C996.481 259.765 1011.93 259.718 1027.38 259.742C1027.35 264.896 1027.35 270.049 1027.39 275.203C1006.82 275.239 986.269 275.239 965.716 275.215C965.775 244.445 965.799 213.687 965.704 182.929Z" fill="#FEFEFE"/>
<path d="M211.105 296.292C221.944 296.268 232.782 296.268 243.633 296.292C243.609 298.432 243.597 300.571 243.597 302.711C239.267 302.723 234.936 302.723 230.617 302.723C230.617 313.527 230.57 324.343 230.641 335.148C228.475 335.159 226.31 335.159 224.145 335.171C224.156 324.355 224.168 313.539 224.133 302.723C219.802 302.723 215.459 302.723 211.129 302.711C211.117 300.571 211.117 298.432 211.105 296.292Z" fill="#FEFEFE"/>
<path d="M309.73 308.763C308.949 302.569 314.273 296.268 320.592 296.339C327.786 296.174 334.992 296.327 342.198 296.28C342.186 298.432 342.186 300.571 342.175 302.723C335.039 302.817 327.881 302.522 320.758 302.841C316.025 302.817 314.498 309.874 318.687 311.908C323.763 313.657 329.514 311.565 334.72 313.161C338.708 314.745 341.902 318.563 342.186 322.925C342.837 329.072 337.536 335.077 331.336 335.136C324.118 335.242 316.9 335.124 309.682 335.171C309.682 332.961 309.682 330.762 309.694 328.575C317.184 328.421 324.71 328.847 332.188 328.374C336.732 327.381 336.661 320.501 332.33 319.177C327.703 318.551 323.006 319.355 318.379 318.716C313.812 317.629 310.156 313.444 309.73 308.763Z" fill="#FEFEFE"/>
<path d="M497.383 296.28C499.548 296.28 501.713 296.28 503.89 296.292C503.867 304.011 503.76 311.742 503.902 319.461C504.021 324.426 508.612 328.776 513.593 328.575C518.527 328.752 523.166 324.379 523.272 319.449C523.367 311.73 523.296 304.011 523.26 296.292C525.473 296.28 527.686 296.28 529.898 296.292C529.733 304.401 530.029 312.522 529.756 320.631C529.236 328.717 521.58 335.396 513.534 335.195C505.086 335.384 497.359 327.925 497.442 319.473C497.347 311.742 497.477 304.011 497.383 296.28Z" fill="#FEFEFE"/>
<path d="M559.882 296.292C570.709 296.268 581.548 296.268 592.374 296.292C592.363 298.42 592.351 300.559 592.351 302.711C588.044 302.723 583.748 302.723 579.441 302.723C579.359 313.574 579.536 324.414 579.359 335.266C577.181 335.195 575.028 335.159 572.874 335.124C572.957 324.32 572.898 313.527 572.91 302.723C568.579 302.723 564.248 302.723 559.918 302.711C559.906 300.571 559.894 298.432 559.882 296.292Z" fill="#FEFEFE"/>
<path d="M753.984 296.28C756.185 296.28 758.385 296.28 760.61 296.292C760.503 309.248 760.61 322.215 760.551 335.183C751.925 327.393 743.287 319.615 734.578 311.931C734.602 319.686 734.59 327.44 734.59 335.195C732.448 335.171 730.307 335.159 728.177 335.148C728.224 322.204 728.212 309.271 728.189 296.327C736.826 304.011 745.452 311.73 754.019 319.508C754.007 311.766 754.055 304.023 753.984 296.28Z" fill="#FEFEFE"/>
<path d="M793.02 300.76C794.913 298.302 797.788 296.481 800.947 296.375C808.355 296.127 815.785 296.339 823.193 296.292C823.181 298.42 823.169 300.559 823.181 302.711C815.75 302.924 808.284 302.333 800.888 303.006C796.498 303.68 795.848 310.335 799.894 312.038C806.343 313.905 814.65 310.193 819.868 315.868C826.387 321.719 822.577 333.552 814.082 334.97C806.308 335.455 798.51 335.029 790.724 335.159C790.724 332.961 790.736 330.762 790.748 328.575C798.072 328.457 805.432 328.776 812.756 328.433C817.17 327.984 817.998 321.388 814.058 319.579C808.118 317.522 800.77 321.01 795.362 316.849C790.263 313.397 789.174 305.524 793.02 300.76Z" fill="#FEFEFE"/>
<path d="M951.659 296.28C953.86 296.28 956.072 296.28 958.285 296.292C958.179 309.26 958.297 322.227 958.226 335.195C949.576 327.393 940.962 319.579 932.218 311.908C932.277 319.662 932.182 327.405 932.277 335.159C930.1 335.159 927.946 335.159 925.793 335.171C925.84 322.204 925.816 309.248 925.805 296.28C934.478 303.976 943.116 311.707 951.683 319.52C951.694 311.766 951.718 304.023 951.659 296.28Z" fill="#FEFEFE"/>
<path d="M111.309 296.304C113.451 296.28 115.592 296.268 117.746 296.268C117.71 309.236 117.71 322.204 117.746 335.171C115.604 335.159 113.463 335.159 111.321 335.159C111.38 322.204 111.392 309.248 111.309 296.304Z" fill="#FEFEFE"/>
<path d="M155.149 300.536C162.58 294.318 174.424 295.086 181.121 302.037C179.583 303.515 178.057 305.004 176.53 306.494C171.087 301.221 161.266 301.742 156.864 308.066C151.966 314.071 154.462 324 161.432 327.227C166.354 329.816 172.483 328.54 176.542 324.922C178.057 326.412 179.583 327.889 181.109 329.379C173.466 337.583 159.136 336.826 152.238 328.079C145.221 320.159 146.736 306.848 155.149 300.536Z" fill="#FEFEFE"/>
<path d="M384.961 297.427C396.664 292.663 411.087 302.025 411.253 314.662C412.283 325.454 402.426 335.526 391.694 335.195C381.778 335.384 372.726 326.861 372.277 316.991C371.543 308.586 377.152 300.358 384.961 297.427ZM387.434 303.526C383.234 305.063 379.767 308.858 379.033 313.326C377.329 320.939 383.92 328.906 391.718 328.563C399.48 328.942 406.248 320.939 404.509 313.361C403.29 305.772 394.64 300.855 387.434 303.526Z" fill="#FEFEFE"/>
<path d="M441.438 296.304C443.592 296.28 445.745 296.268 447.91 296.268C447.863 307.025 447.922 317.794 447.875 328.563C454.336 328.587 460.808 328.551 467.28 328.587C467.269 330.774 467.269 332.961 467.292 335.148C458.678 335.183 450.064 335.171 441.45 335.159C441.509 322.204 441.521 309.248 441.438 296.304Z" fill="#FEFEFE"/>
<path d="M622.559 296.304C624.701 296.28 626.855 296.268 629.02 296.268C628.984 309.236 628.984 322.204 629.02 335.171C626.855 335.159 624.713 335.159 622.571 335.159C622.63 322.204 622.654 309.26 622.559 296.304Z" fill="#FEFEFE"/>
<path d="M671.392 297.533C683.095 292.545 697.862 301.836 697.98 314.615C699.104 325.596 688.893 335.786 677.983 335.183C667.902 335.136 658.661 326.01 659.122 315.832C658.696 307.9 664.151 300.429 671.392 297.533ZM673.83 303.668C670.091 305.122 667.085 308.385 665.997 312.25C663.843 319.485 669.156 327.771 676.741 328.469C684.609 329.875 692.372 322.582 691.413 314.662C691.058 306.363 681.474 300.358 673.83 303.668Z" fill="#FEFEFE"/>
<path d="M889.183 335.171C889.195 322.204 889.207 309.236 889.171 296.257C891.325 296.268 893.502 296.292 895.691 296.328C895.525 309.26 895.608 322.215 895.643 335.159C893.478 335.159 891.313 335.159 889.183 335.171Z" fill="#FEFEFE"/>
<path d="M988.375 315.844C988.091 305.796 996.907 296.528 1006.98 296.328C1012.49 295.878 1017.77 298.29 1021.77 301.954C1020.24 303.467 1018.75 304.992 1017.26 306.517C1013.77 303.704 1009.14 301.836 1004.66 303.243C996.907 304.945 992.257 314.721 996.41 321.648C1000.08 329.32 1011.22 330.833 1017.16 324.911C1018.71 326.447 1020.26 327.996 1021.79 329.568C1017.66 333.055 1012.42 335.609 1006.88 335.171C996.978 334.769 988.174 325.833 988.375 315.844Z" fill="#FEFEFE"/>
<path d="M1033.34 329.166C1035.63 327.322 1039.73 329.119 1039.69 332.133C1039.84 335.81 1034.29 337.074 1032.32 334.273C1030.75 332.795 1031.53 330.088 1033.34 329.166Z" fill="#FEFEFE"/>
</svg>
